<mxfile host="app.diagrams.net" modified="2022-05-19T08:20:43.905Z" agent="5.0 (Macintosh; Intel Mac OS X 10_15_7) AppleWebKit/605.1.15 (KHTML, like Gecko) Version/15.3 Safari/605.1.15" etag="Ju_vGKfmFxacgxMtof4w" version="18.0.7" type="github">
  <diagram id="FACNEUS64CCorlGvsynq" name="Page-1">
    <mxGraphModel dx="962" dy="537" grid="1" gridSize="10" guides="1" tooltips="1" connect="1" arrows="1" fold="1" page="1" pageScale="1" pageWidth="827" pageHeight="1169" math="1" shadow="0">
      <root>
        <mxCell id="0" />
        <mxCell id="1" parent="0" />
        <mxCell id="-59EvZmD5TNxzZre4VTn-7" value="" style="edgeStyle=orthogonalEdgeStyle;rounded=0;orthogonalLoop=1;jettySize=auto;html=1;fontSize=13;" edge="1" parent="1" source="-59EvZmD5TNxzZre4VTn-1" target="-59EvZmD5TNxzZre4VTn-6">
          <mxGeometry relative="1" as="geometry" />
        </mxCell>
        <mxCell id="-59EvZmD5TNxzZre4VTn-1" value="B" style="rounded=0;whiteSpace=wrap;html=1;fontSize=13;" vertex="1" parent="1">
          <mxGeometry x="290" y="34" width="40" height="40" as="geometry" />
        </mxCell>
        <mxCell id="-59EvZmD5TNxzZre4VTn-10" value="" style="edgeStyle=orthogonalEdgeStyle;rounded=0;orthogonalLoop=1;jettySize=auto;html=1;fontSize=13;" edge="1" parent="1" source="-59EvZmD5TNxzZre4VTn-2" target="-59EvZmD5TNxzZre4VTn-3">
          <mxGeometry relative="1" as="geometry" />
        </mxCell>
        <mxCell id="-59EvZmD5TNxzZre4VTn-31" value="\begin{equation} x \end{equation}" style="edgeLabel;html=1;align=center;verticalAlign=middle;resizable=0;points=[];fontSize=13;" vertex="1" connectable="0" parent="-59EvZmD5TNxzZre4VTn-10">
          <mxGeometry x="-0.4464" relative="1" as="geometry">
            <mxPoint y="-22" as="offset" />
          </mxGeometry>
        </mxCell>
        <mxCell id="-59EvZmD5TNxzZre4VTn-2" value="1/s" style="rounded=0;whiteSpace=wrap;html=1;fontSize=13;" vertex="1" parent="1">
          <mxGeometry x="410" y="34" width="40" height="40" as="geometry" />
        </mxCell>
        <mxCell id="-59EvZmD5TNxzZre4VTn-13" style="edgeStyle=orthogonalEdgeStyle;rounded=0;orthogonalLoop=1;jettySize=auto;html=1;startArrow=none;startFill=0;endArrow=classic;endFill=1;fontSize=13;" edge="1" parent="1" source="-59EvZmD5TNxzZre4VTn-3">
          <mxGeometry relative="1" as="geometry">
            <mxPoint x="670" y="54" as="targetPoint" />
          </mxGeometry>
        </mxCell>
        <mxCell id="-59EvZmD5TNxzZre4VTn-35" value="\begin{equation} y \end{equation}" style="edgeLabel;html=1;align=center;verticalAlign=middle;resizable=0;points=[];fontSize=13;" vertex="1" connectable="0" parent="-59EvZmD5TNxzZre4VTn-13">
          <mxGeometry x="-0.5667" y="-1" relative="1" as="geometry">
            <mxPoint x="9" y="-25" as="offset" />
          </mxGeometry>
        </mxCell>
        <mxCell id="-59EvZmD5TNxzZre4VTn-3" value="C" style="rounded=0;whiteSpace=wrap;html=1;fontSize=13;" vertex="1" parent="1">
          <mxGeometry x="530" y="34" width="40" height="40" as="geometry" />
        </mxCell>
        <mxCell id="-59EvZmD5TNxzZre4VTn-9" style="edgeStyle=orthogonalEdgeStyle;rounded=0;orthogonalLoop=1;jettySize=auto;html=1;exitX=0;exitY=0.5;exitDx=0;exitDy=0;entryX=0.5;entryY=1;entryDx=0;entryDy=0;fontSize=13;" edge="1" parent="1" source="-59EvZmD5TNxzZre4VTn-5" target="-59EvZmD5TNxzZre4VTn-6">
          <mxGeometry relative="1" as="geometry" />
        </mxCell>
        <mxCell id="-59EvZmD5TNxzZre4VTn-11" style="edgeStyle=orthogonalEdgeStyle;rounded=0;orthogonalLoop=1;jettySize=auto;html=1;exitX=1;exitY=0.5;exitDx=0;exitDy=0;endArrow=none;endFill=0;startArrow=classic;startFill=1;fontSize=13;" edge="1" parent="1" source="-59EvZmD5TNxzZre4VTn-5">
          <mxGeometry relative="1" as="geometry">
            <mxPoint x="490" y="54" as="targetPoint" />
          </mxGeometry>
        </mxCell>
        <mxCell id="-59EvZmD5TNxzZre4VTn-5" value="A" style="rounded=0;whiteSpace=wrap;html=1;fontSize=13;" vertex="1" parent="1">
          <mxGeometry x="410" y="114" width="40" height="40" as="geometry" />
        </mxCell>
        <mxCell id="-59EvZmD5TNxzZre4VTn-8" value="" style="edgeStyle=orthogonalEdgeStyle;rounded=0;orthogonalLoop=1;jettySize=auto;html=1;fontSize=13;" edge="1" parent="1" source="-59EvZmD5TNxzZre4VTn-6" target="-59EvZmD5TNxzZre4VTn-2">
          <mxGeometry relative="1" as="geometry" />
        </mxCell>
        <mxCell id="-59EvZmD5TNxzZre4VTn-32" value="\begin{equation} \dot{x} \end{equation}" style="edgeLabel;html=1;align=center;verticalAlign=middle;resizable=0;points=[];fontSize=13;" vertex="1" connectable="0" parent="-59EvZmD5TNxzZre4VTn-8">
          <mxGeometry x="0.2476" relative="1" as="geometry">
            <mxPoint y="-23" as="offset" />
          </mxGeometry>
        </mxCell>
        <mxCell id="-59EvZmD5TNxzZre4VTn-6" value="" style="ellipse;whiteSpace=wrap;html=1;aspect=fixed;fontSize=13;" vertex="1" parent="1">
          <mxGeometry x="360" y="44" width="20" height="20" as="geometry" />
        </mxCell>
        <mxCell id="-59EvZmD5TNxzZre4VTn-14" style="edgeStyle=orthogonalEdgeStyle;rounded=0;orthogonalLoop=1;jettySize=auto;html=1;exitX=0.5;exitY=0;exitDx=0;exitDy=0;startArrow=classic;startFill=1;endArrow=none;endFill=0;fontSize=13;" edge="1" parent="1" source="-59EvZmD5TNxzZre4VTn-12">
          <mxGeometry relative="1" as="geometry">
            <mxPoint x="610.2380952380952" y="54" as="targetPoint" />
          </mxGeometry>
        </mxCell>
        <mxCell id="-59EvZmD5TNxzZre4VTn-25" style="edgeStyle=orthogonalEdgeStyle;rounded=0;orthogonalLoop=1;jettySize=auto;html=1;exitX=0;exitY=0.5;exitDx=0;exitDy=0;entryX=1;entryY=0.5;entryDx=0;entryDy=0;startArrow=none;startFill=0;endArrow=classic;endFill=1;fontSize=13;" edge="1" parent="1" source="-59EvZmD5TNxzZre4VTn-12" target="-59EvZmD5TNxzZre4VTn-45">
          <mxGeometry relative="1" as="geometry" />
        </mxCell>
        <mxCell id="-59EvZmD5TNxzZre4VTn-44" value="\begin{equation} e_y \end{equation}" style="edgeLabel;html=1;align=center;verticalAlign=middle;resizable=0;points=[];fontSize=13;" vertex="1" connectable="0" parent="-59EvZmD5TNxzZre4VTn-25">
          <mxGeometry x="-0.6153" y="-2" relative="1" as="geometry">
            <mxPoint x="4" y="-22" as="offset" />
          </mxGeometry>
        </mxCell>
        <mxCell id="-59EvZmD5TNxzZre4VTn-12" value="" style="ellipse;whiteSpace=wrap;html=1;aspect=fixed;fontSize=13;" vertex="1" parent="1">
          <mxGeometry x="600" y="184" width="20" height="20" as="geometry" />
        </mxCell>
        <mxCell id="-59EvZmD5TNxzZre4VTn-15" value="" style="edgeStyle=orthogonalEdgeStyle;rounded=0;orthogonalLoop=1;jettySize=auto;html=1;fontSize=13;" edge="1" parent="1" source="-59EvZmD5TNxzZre4VTn-16" target="-59EvZmD5TNxzZre4VTn-24">
          <mxGeometry relative="1" as="geometry" />
        </mxCell>
        <mxCell id="-59EvZmD5TNxzZre4VTn-30" style="edgeStyle=orthogonalEdgeStyle;rounded=0;orthogonalLoop=1;jettySize=auto;html=1;exitX=0;exitY=0.5;exitDx=0;exitDy=0;startArrow=classic;startFill=1;endArrow=none;endFill=0;fontSize=13;" edge="1" parent="1" source="-59EvZmD5TNxzZre4VTn-16">
          <mxGeometry relative="1" as="geometry">
            <mxPoint x="230" y="275" as="targetPoint" />
          </mxGeometry>
        </mxCell>
        <mxCell id="-59EvZmD5TNxzZre4VTn-42" value="\begin{equation} \dot{u} \end{equation}" style="edgeLabel;html=1;align=center;verticalAlign=middle;resizable=0;points=[];fontSize=13;" vertex="1" connectable="0" parent="-59EvZmD5TNxzZre4VTn-30">
          <mxGeometry x="0.2143" y="-1" relative="1" as="geometry">
            <mxPoint y="-22" as="offset" />
          </mxGeometry>
        </mxCell>
        <mxCell id="-59EvZmD5TNxzZre4VTn-16" value="B" style="rounded=0;whiteSpace=wrap;html=1;fontSize=13;" vertex="1" parent="1">
          <mxGeometry x="290" y="255" width="40" height="40" as="geometry" />
        </mxCell>
        <mxCell id="-59EvZmD5TNxzZre4VTn-17" value="" style="edgeStyle=orthogonalEdgeStyle;rounded=0;orthogonalLoop=1;jettySize=auto;html=1;fontSize=13;" edge="1" parent="1" source="-59EvZmD5TNxzZre4VTn-18" target="-59EvZmD5TNxzZre4VTn-19">
          <mxGeometry relative="1" as="geometry" />
        </mxCell>
        <mxCell id="-59EvZmD5TNxzZre4VTn-40" value="\begin{equation} \hat{x} \end{equation}" style="edgeLabel;html=1;align=center;verticalAlign=middle;resizable=0;points=[];fontSize=13;" vertex="1" connectable="0" parent="-59EvZmD5TNxzZre4VTn-17">
          <mxGeometry x="-0.3512" y="1" relative="1" as="geometry">
            <mxPoint y="-22" as="offset" />
          </mxGeometry>
        </mxCell>
        <mxCell id="-59EvZmD5TNxzZre4VTn-18" value="1/s" style="rounded=0;whiteSpace=wrap;html=1;fontSize=13;" vertex="1" parent="1">
          <mxGeometry x="410" y="255" width="40" height="40" as="geometry" />
        </mxCell>
        <mxCell id="-59EvZmD5TNxzZre4VTn-26" style="edgeStyle=orthogonalEdgeStyle;rounded=0;orthogonalLoop=1;jettySize=auto;html=1;exitX=1;exitY=0.5;exitDx=0;exitDy=0;entryX=0.5;entryY=1;entryDx=0;entryDy=0;startArrow=none;startFill=0;endArrow=classic;endFill=1;fontSize=13;" edge="1" parent="1" source="-59EvZmD5TNxzZre4VTn-19" target="-59EvZmD5TNxzZre4VTn-12">
          <mxGeometry relative="1" as="geometry" />
        </mxCell>
        <mxCell id="-59EvZmD5TNxzZre4VTn-39" value="\begin{equation} \hat{y} \end{equation}" style="edgeLabel;html=1;align=center;verticalAlign=middle;resizable=0;points=[];fontSize=13;" vertex="1" connectable="0" parent="-59EvZmD5TNxzZre4VTn-26">
          <mxGeometry x="-0.5714" y="1" relative="1" as="geometry">
            <mxPoint y="-23" as="offset" />
          </mxGeometry>
        </mxCell>
        <mxCell id="-59EvZmD5TNxzZre4VTn-19" value="C" style="rounded=0;whiteSpace=wrap;html=1;fontSize=13;" vertex="1" parent="1">
          <mxGeometry x="530" y="255" width="40" height="40" as="geometry" />
        </mxCell>
        <mxCell id="-59EvZmD5TNxzZre4VTn-20" style="edgeStyle=orthogonalEdgeStyle;rounded=0;orthogonalLoop=1;jettySize=auto;html=1;exitX=0;exitY=0.5;exitDx=0;exitDy=0;entryX=0.5;entryY=1;entryDx=0;entryDy=0;fontSize=13;" edge="1" parent="1" source="-59EvZmD5TNxzZre4VTn-22" target="-59EvZmD5TNxzZre4VTn-24">
          <mxGeometry relative="1" as="geometry" />
        </mxCell>
        <mxCell id="-59EvZmD5TNxzZre4VTn-21" style="edgeStyle=orthogonalEdgeStyle;rounded=0;orthogonalLoop=1;jettySize=auto;html=1;exitX=1;exitY=0.5;exitDx=0;exitDy=0;endArrow=none;endFill=0;startArrow=classic;startFill=1;fontSize=13;" edge="1" parent="1" source="-59EvZmD5TNxzZre4VTn-22">
          <mxGeometry relative="1" as="geometry">
            <mxPoint x="490" y="275" as="targetPoint" />
          </mxGeometry>
        </mxCell>
        <mxCell id="-59EvZmD5TNxzZre4VTn-22" value="A" style="rounded=0;whiteSpace=wrap;html=1;fontSize=13;" vertex="1" parent="1">
          <mxGeometry x="410" y="335" width="40" height="40" as="geometry" />
        </mxCell>
        <mxCell id="-59EvZmD5TNxzZre4VTn-23" value="" style="edgeStyle=orthogonalEdgeStyle;rounded=0;orthogonalLoop=1;jettySize=auto;html=1;fontSize=13;" edge="1" parent="1" source="-59EvZmD5TNxzZre4VTn-24" target="-59EvZmD5TNxzZre4VTn-18">
          <mxGeometry relative="1" as="geometry" />
        </mxCell>
        <mxCell id="-59EvZmD5TNxzZre4VTn-41" value="\begin{equation} \dot{\hat{x}} \end{equation}" style="edgeLabel;html=1;align=center;verticalAlign=middle;resizable=0;points=[];fontSize=13;" vertex="1" connectable="0" parent="-59EvZmD5TNxzZre4VTn-23">
          <mxGeometry x="0.3238" y="1" relative="1" as="geometry">
            <mxPoint y="-23" as="offset" />
          </mxGeometry>
        </mxCell>
        <mxCell id="-59EvZmD5TNxzZre4VTn-24" value="" style="ellipse;whiteSpace=wrap;html=1;aspect=fixed;fontSize=13;" vertex="1" parent="1">
          <mxGeometry x="360" y="265" width="20" height="20" as="geometry" />
        </mxCell>
        <mxCell id="-59EvZmD5TNxzZre4VTn-28" style="edgeStyle=orthogonalEdgeStyle;rounded=0;orthogonalLoop=1;jettySize=auto;html=1;exitX=1;exitY=0.5;exitDx=0;exitDy=0;startArrow=classic;startFill=1;endArrow=none;endFill=0;fontSize=13;" edge="1" parent="1" source="-59EvZmD5TNxzZre4VTn-27">
          <mxGeometry relative="1" as="geometry">
            <mxPoint x="490" y="355" as="targetPoint" />
          </mxGeometry>
        </mxCell>
        <mxCell id="-59EvZmD5TNxzZre4VTn-48" style="edgeStyle=orthogonalEdgeStyle;rounded=0;orthogonalLoop=1;jettySize=auto;html=1;exitX=0;exitY=0.5;exitDx=0;exitDy=0;startArrow=none;startFill=0;endArrow=classic;endFill=1;entryX=0;entryY=0.5;entryDx=0;entryDy=0;fontSize=13;" edge="1" parent="1" source="-59EvZmD5TNxzZre4VTn-27" target="-59EvZmD5TNxzZre4VTn-1">
          <mxGeometry relative="1" as="geometry">
            <mxPoint x="230" y="54" as="targetPoint" />
            <Array as="points">
              <mxPoint x="230" y="435" />
              <mxPoint x="230" y="54" />
            </Array>
          </mxGeometry>
        </mxCell>
        <mxCell id="-59EvZmD5TNxzZre4VTn-49" value="\begin{equation} \dot{u} \end{equation}" style="edgeLabel;html=1;align=center;verticalAlign=middle;resizable=0;points=[];fontSize=13;" vertex="1" connectable="0" parent="-59EvZmD5TNxzZre4VTn-48">
          <mxGeometry x="0.8873" y="1" relative="1" as="geometry">
            <mxPoint x="-1" y="-22" as="offset" />
          </mxGeometry>
        </mxCell>
        <mxCell id="-59EvZmD5TNxzZre4VTn-27" value="-K" style="rounded=0;whiteSpace=wrap;html=1;fontSize=13;" vertex="1" parent="1">
          <mxGeometry x="410" y="415" width="40" height="40" as="geometry" />
        </mxCell>
        <mxCell id="-59EvZmD5TNxzZre4VTn-46" style="edgeStyle=orthogonalEdgeStyle;rounded=0;orthogonalLoop=1;jettySize=auto;html=1;exitX=0;exitY=0.5;exitDx=0;exitDy=0;entryX=0.5;entryY=0;entryDx=0;entryDy=0;startArrow=none;startFill=0;endArrow=classic;endFill=1;fontSize=13;" edge="1" parent="1" source="-59EvZmD5TNxzZre4VTn-45" target="-59EvZmD5TNxzZre4VTn-24">
          <mxGeometry relative="1" as="geometry" />
        </mxCell>
        <mxCell id="-59EvZmD5TNxzZre4VTn-45" value="L" style="rounded=0;whiteSpace=wrap;html=1;fontSize=13;" vertex="1" parent="1">
          <mxGeometry x="470" y="174" width="40" height="40" as="geometry" />
        </mxCell>
      </root>
    </mxGraphModel>
  </diagram>
</mxfile>
